Coordinates
version=1
nRows=29
nColumns=22
inDegrees=yes

Units are S.I. units (second, meters, Newtons, ...)
If the header above contains a line with 'inDegrees', this indicates whether rotational values are in degrees (yes) or radians (no).

endheader
time	pelvis_tilt	pelvis_list	pelvis_rotation	pelvis_tx	pelvis_ty	pelvis_tz	hip_flexion_r	hip_adduction_r	hip_rotation_r	knee_angle_r	ankle_angle_r	subtalar_angle_r	hip_flexion_l	hip_adduction_l	hip_rotation_l	knee_angle_l	ankle_angle_l	subtalar_angle_l	lumbar_extension	lumbar_bending	lumbar_rotation
      0.01000000	     -1.82700354	     -3.04960945	     -4.30192316	     -1.26352642	      1.01069191	      0.57223884	     19.26292959	      1.48278664	      0.09847689	    -36.06959413	     13.19084900	      2.49724879	      1.82591467	      2.57821437	     -5.26726274	    -13.23382168	     15.71153185	     -7.61021375	    -11.54237324	      1.21365059	      3.32889968
      0.02000000	     -1.81509907	     -3.12823276	     -4.17700441	     -1.26169972	      1.01057562	      0.57185181	     19.55736325	      1.60349269	      0.17358932	    -35.93519012	     13.10518791	      2.53632434	      1.71966725	      2.52592993	     -5.10416992	    -13.27032953	     15.85617069	     -7.68971184	    -11.61427772	      1.29657040	      3.31551310
      0.03000000	     -1.82430145	     -3.21341572	     -3.99146696	     -1.25957950	      1.01038759	      0.57133819	     19.92271777	      1.72413223	      0.23017824	    -35.74680078	     13.01432296	      2.54197480	      1.65656132	      2.46495622	     -4.92375866	    -13.37380722	     15.98822638	     -7.74389369	    -11.67603975	      1.39592082	      3.24399609
      0.04000000	     -1.83586495	     -3.30517142	     -3.79177254	     -1.25719621	      1.01016174	      0.57081012	     20.33099200	      1.85809908	      0.30693533	    -35.51772734	     12.90066115	      2.53820042	      1.57303431	      2.39874284	     -4.72097688	    -13.46238194	     16.14146644	     -7.77022206	    -11.74089002	      1.49646461	      3.17975577
      0.05000000	     -1.84962824	     -3.39781899	     -3.56723589	     -1.25462811	      1.00990975	      0.57025087	     20.75393976	      1.99194915	      0.39667357	    -35.22277004	     12.76825200	      2.53742372	      1.49239069	      2.33050783	     -4.50469113	    -13.57073464	     16.30498280	     -7.79308095	    -11.80775207	      1.59639701	      3.10996672
      0.06000000	     -1.86114596	     -3.49042229	     -3.33536392	     -1.25193355	      1.00962722	      0.56969170	     21.19383284	      2.12643731	      0.50206263	    -34.90035198	     12.62810828	      2.54262437	      1.39850012	      2.26217317	     -4.28151437	    -13.67064345	     16.47260401	     -7.81539131	    -11.88080033	      1.69572640	      3.03367965
      0.07000000	     -1.86579771	     -3.57757567	     -3.10094088	     -1.24912970	      1.00933615	      0.56914683	     21.62500145	      2.25327202	      0.61678404	    -34.53074143	     12.48117245	      2.55710271	      1.28700952	      2.19900278	     -4.05574650	    -13.76229463	     16.64144848	     -7.83227629	    -11.96125372	      1.78519102	      2.97331564
      0.08000000	     -1.86388544	     -3.65769366	     -2.86622352	     -1.24622557	      1.00903642	      0.56861326	     22.04243009	      2.36985724	      0.73727668	    -34.11883492	     12.33274409	      2.57889025	      1.15246867	      2.14317807	     -3.82714216	    -13.83439662	     16.81387619	     -7.83921230	    -12.04374376	      1.86695824	      2.93315503
      0.09000000	     -1.85575265	     -3.73355877	     -2.62487388	     -1.24326400	      1.00872428	      0.56809016	     22.44795087	      2.47483236	      0.84396493	    -33.67485613	     12.20040962	      2.60866224	      1.01130821	      2.08864374	     -3.60205636	    -13.91201929	     16.98337015	     -7.84153099	    -12.13377607	      1.94222370	      2.88586683
      0.10000000	     -1.84245579	     -3.80482853	     -2.37372571	     -1.24023302	      1.00840304	      0.56756489	     22.83843444	      2.56423703	      0.92472692	    -33.19879566	     12.08572786	      2.64919527	      0.85994712	      2.03601980	     -3.37637085	    -13.98717778	     17.15239738	     -7.83595188	    -12.22696009	      2.01360146	      2.83673757
      0.11000000	     -1.82547989	     -3.86778103	     -2.12133852	     -1.23712515	      1.00807382	      0.56704362	     23.21820307	      2.63531261	      0.97966088	    -32.69785011	     11.98520369	      2.69553985	      0.69094771	      1.98945889	     -3.15443949	    -14.04473896	     17.31846856	     -7.81817789	    -12.31972714	      2.07782336	      2.79563902
      0.12000000	     -1.80829639	     -3.93219361	     -1.85804552	     -1.23395495	      1.00774101	      0.56651169	     23.59122866	      2.69661318	      1.00261515	    -32.17599600	     11.86987053	      2.74657248	      0.51108659	      1.93875978	     -2.92608933	    -14.08752553	     17.48624639	     -7.78640265	    -12.41343037	      2.14648461	      2.75307175
      0.13000000	     -1.79072195	     -3.99760216	     -1.58513654	     -1.23072353	      1.00740913	      0.56598091	     23.96101258	      2.74847660	      1.00157479	    -31.64166094	     11.71570670	      2.79717684	      0.32192730	      1.88174049	     -2.70225046	    -14.11977286	     17.64842345	     -7.73935088	    -12.50718788	      2.21785958	      2.70698590
      0.14000000	     -1.78054484	     -4.06665288	     -1.31199049	     -1.22742532	      1.00706869	      0.56544992	     24.33955300	      2.79610722	      0.98507461	    -31.10437603	     11.48868561	      2.83797563	      0.12428460	      1.81746650	     -2.48264210	    -14.12789982	     17.80983754	     -7.68174375	    -12.59264706	      2.29629628	      2.67791488
      0.15000000	     -1.77697458	     -4.13671154	     -1.03787324	     -1.22406106	      1.00671683	      0.56492470	     24.72431604	      2.83830281	      0.95832915	    -30.56431636	     11.18250583	      2.86706929	     -0.07839740	      1.74840428	     -2.26837640	    -14.12018104	     17.96881442	     -7.61741185	    -12.67137956	      2.37770677	      2.65926110
      0.16000000	     -1.77691106	     -4.20784551	     -0.75661157	     -1.22061501	      1.00635009	      0.56440569	     25.10663666	      2.87221234	      0.90236549	    -30.01739755	     10.80624473	      2.88452698	     -0.28694730	      1.67365095	     -2.05604534	    -14.10195571	     18.12696904	     -7.54468382	    -12.74496388	      2.46043850	      2.64066981
      0.17000000	     -1.77846498	     -4.26945714	     -0.47314613	     -1.21706006	      1.00595988	      0.56388854	     25.47856135	      2.88681463	      0.80376878	    -29.45666443	     10.38371111	      2.89336226	     -0.50834192	      1.60710725	     -1.84210456	    -14.06825327	     18.28303028	     -7.46724466	    -12.81200368	      2.53450217	      2.62395570
      0.18000000	     -1.77915228	     -4.31266261	     -0.19069816	     -1.21339140	      1.00554224	      0.56337070	     25.83477638	      2.87235899	      0.64620503	    -28.87871478	      9.93672571	      2.90673795	     -0.74584058	      1.55970085	     -1.62521129	    -14.01833188	     18.42892163	     -7.39404491	    -12.87457461	      2.58927157	      2.61674442
      0.19000000	     -1.77657761	     -4.33662098	      0.09391519	     -1.20958904	      1.00509888	      0.56286749	     26.16878382	      2.82928398	      0.41912463	    -28.28230021	      9.48144864	      2.93659748	     -1.00453272	      1.53071042	     -1.40424393	    -13.95118146	     18.56262776	     -7.32744250	    -12.93322311	      2.61963966	      2.61526298
      0.20000000	     -1.76366670	     -4.34846421	      0.38129768	     -1.20564859	      1.00464223	      0.56235139	     26.47258571	      2.76054657	      0.10634347	    -27.67113217	      9.03116159	      2.99237599	     -1.29509756	      1.51402163	     -1.17657873	    -13.86173683	     18.68748398	     -7.26297840	    -12.99524451	      2.64087826	      2.61095773
      0.21000000	     -1.75092063	     -4.34541596	      0.66471160	     -1.20160193	      1.00416462	      0.56185470	     26.75682471	      2.67606419	     -0.24440491	    -27.04602323	      8.57138141	      3.08974436	     -1.59763526	      1.51052246	     -0.94605370	    -13.76546257	     18.78603231	     -7.21222125	    -13.05444006	      2.64393690	      2.61718612
      0.22000000	     -1.74933967	     -4.32595197	      0.93321738	     -1.19746538	      1.00365360	      0.56140139	     27.03418317	      2.58409798	     -0.59646809	    -26.41122428	      8.10784559	      3.21738029	     -1.89701691	      1.52254122	     -0.71789448	    -13.66908558	     18.85901360	     -7.17292674	    -13.10009848	      2.62498213	      2.63766878
      0.23000000	     -1.74654773	     -4.30564999	      1.20522364	     -1.19321340	      1.00312355	      0.56096500	     27.29256306	      2.48982218	     -0.98548958	    -25.77988595	      7.69142718	      3.38520770	     -2.21394005	      1.53055154	     -0.48812051	    -13.55606057	     18.93053265	     -7.13548117	    -13.14397816	      2.60594822	      2.65988713
      0.24000000	     -1.71952084	     -4.29617743	      1.48441441	     -1.18881816	      1.00260981	      0.56053848	     27.50089938	      2.40379424	     -1.42039969	    -25.14709805	      7.39006506	      3.65087434	     -2.57471465	      1.52049111	     -0.26764325	    -13.42526298	     19.00652009	     -7.09663311	    -13.20826280	      2.60442368	      2.66071522
      0.25000000	     -1.73003499	     -4.26905781	      1.73470193	     -1.18437743	      1.00202698	      0.56022061	     27.72761780	      2.33382712	     -1.75606448	    -24.50392821	      7.08597418	      3.86659906	     -2.88528200	      1.52624326	     -0.04868572	    -13.32641199	     19.06083681	     -7.05715026	    -13.23905133	      2.56894395	      2.69369911
      0.26000000	     -1.71983689	     -4.25360536	      1.98875745	     -1.17979086	      1.00144607	      0.55993046	     27.91185222	      2.28152326	     -2.10656855	    -23.87244692	      6.90595815	      4.16049067	     -3.23349900	      1.51226664	      0.15403861	    -13.21163878	     19.14672950	     -7.00632037	    -13.28652351	      2.54976959	      2.71170057
      0.27000000	     -1.74242626	     -4.23036279	      2.22828526	     -1.17515321	      1.00079929	      0.55972529	     28.10079024	      2.25431065	     -2.34420956	    -23.22036203	      6.71834123	      4.37365299	     -3.52739904	      1.50352214	      0.36490494	    -13.14464361	     19.22016530	     -6.95178696	    -13.30433780	      2.51170198	      2.74316745
      0.28000000	     -1.76956767	     -4.21104107	      2.46192479	     -1.17039915	      1.00012082	      0.55958882	     28.26786327	      2.25597096	     -2.50798969	    -22.56861285	      6.58166708	      4.58250897	     -3.81950259	      1.48422930	      0.57460855	    -13.08470117	     19.31687650	     -6.88414044	    -13.31617878	      2.47275442	      2.77396079
      0.29000000	     -1.81079169	     -4.18961440	      2.68883111	     -1.16554863	      0.99940047	      0.55952156	     28.41485123	      2.28918109	     -2.54159808	    -21.90281762	      6.46919323	      4.76524312	     -4.09024346	      1.46206544	      0.78193362	    -13.04838445	     19.42325004	     -6.80709293	    -13.31310185	      2.42542137	      2.80329244
